ffmpeg version 3.4.8-0ubuntu0.2 Copyright (c) 2000-2020 the FFmpeg developers
  built with gcc 7 (Ubuntu 7.5.0-3ubuntu1~18.04)
  configuration: --prefix=/usr --extra-version=0ubuntu0.2 --toolchain=hardened --libdir=/usr/lib/x86_64-linux-gnu --incdir=/usr/include/x86_64-linux-gnu --enable-gpl --disable-stripping --enable-avresample --enable-avisynth --enable-gnutls --enable-ladspa --enable-libass --enable-libbluray --enable-libbs2b --enable-libcaca --enable-libcdio --enable-libflite --enable-libfontconfig --enable-libfreetype --enable-libfribidi --enable-libgme --enable-libgsm --enable-libmp3lame --enable-libmysofa --enable-libopenjpeg --enable-libopenmpt --enable-libopus --enable-libpulse --enable-librubberband --enable-librsvg --enable-libshine --enable-libsnappy --enable-libsoxr --enable-libspeex --enable-libssh --enable-libtheora --enable-libtwolame --enable-libvorbis --enable-libvpx --enable-libwavpack --enable-libwebp --enable-libx265 --enable-libxml2 --enable-libxvid --enable-libzmq --enable-libzvbi --enable-omx --enable-openal --enable-opengl --enable-sdl2 --enable-libdc1394 --enable-libdrm --enable-libiec61883 --enable-chromaprint --enable-frei0r --enable-libopencv --enable-libx264 --enable-shared
  libavutil      55. 78.100 / 55. 78.100
  libavcodec     57.107.100 / 57.107.100
  libavformat    57. 83.100 / 57. 83.100
  libavdevice    57. 10.100 / 57. 10.100
  libavfilter     6.107.100 /  6.107.100
  libavresample   3.  7.  0 /  3.  7.  0
  libswscale      4.  8.100 /  4.  8.100
  libswresample   2.  9.100 /  2.  9.100
  libpostproc    54.  7.100 / 54.  7.100
[rawvideo @ 0x55dc7102ca20] Estimating duration from bitrate, this may be inaccurate
Input #0, rawvideo, from '../../SVC-Encoder-20220109T061506Z-001/SVC-Encoder/Dataset/RollerCoaster/6f_2x2/tile_yuv/f1_t1_480x480.yuv':
  Duration: 00:00:10.00, start: 0.000000, bitrate: 82944 kb/s
    Stream #0:0: Video: rawvideo (I420 / 0x30323449), yuv420p, 480x480, 82944 kb/s, 30 tbr, 30 tbn, 30 tbc
Stream mapping:
  Stream #0:0 -> #0:0 (rawvideo (native) -> h264 (libx264))
Press [q] to stop, [?] for help
[libx264 @ 0x55dc71039c60] using cpu capabilities: MMX2 SSE2Fast LZCNT SSSE3 SSE4.2 AVX
[libx264 @ 0x55dc71039c60] profile High, level 3.0
Output #0, rawvideo, to 'RollerCoaster_f1_t1_480x480_x264_QP_28.h264':
  Metadata:
    encoder         : Lavf57.83.100
    Stream #0:0: Video: h264 (libx264), yuv420p, 480x480, q=-1--1, 30 fps, 30 tbn, 30 tbc
    Metadata:
      encoder         : Lavc57.107.100 libx264
    Side data:
      cpb: bitrate max/min/avg: 0/0/0 buffer size: 0 vbv_delay: -1
frame=  118 fps=0.0 q=34.0 PSNR=Y:nan U:nan V:nan *:nan size=     117kB time=00:00:02.50 bitrate= 383.0kbits/s speed=4.99x    frame=  204 fps=202 q=34.0 PSNR=Y:nan U:nan V:nan *:nan size=     232kB time=00:00:05.36 bitrate= 353.8kbits/s speed=5.32x    frame=  294 fps=195 q=34.0 PSNR=Y:nan U:nan V:nan *:nan size=     256kB time=00:00:08.36 bitrate= 250.7kbits/s speed=5.54x    frame=  300 fps=175 q=34.0 LPSNR=Y:inf U:inf V:inf *:inf size=     400kB time=00:00:09.93 bitrate= 329.7kbits/s speed= 5.8x    
video:400kB audio:0kB subtitle:0kB other streams:0kB global headers:0kB muxing overhead: 0.000000%
[libx264 @ 0x55dc71039c60] frame I:2     Avg QP:26.19  size: 24634  PSNR Mean Y:40.68 U:46.19 V:48.88 Avg:41.99 Global:41.86
[libx264 @ 0x55dc71039c60] frame P:76    Avg QP:27.79  size:  3772  PSNR Mean Y:38.68 U:45.95 V:48.34 Avg:40.13 Global:40.07
[libx264 @ 0x55dc71039c60] frame B:222   Avg QP:33.56  size:   331  PSNR Mean Y:38.12 U:45.84 V:48.33 Avg:39.61 Global:39.59
[libx264 @ 0x55dc71039c60] consecutive B-frames:  1.3%  0.0%  0.0% 98.7%
[libx264 @ 0x55dc71039c60] mb I  I16..4: 14.9% 77.7%  7.4%
[libx264 @ 0x55dc71039c60] mb P  I16..4:  0.2%  0.1%  0.0%  P16..4: 31.6% 17.0% 10.5%  0.0%  0.0%    skip:40.5%
[libx264 @ 0x55dc71039c60] mb B  I16..4:  0.0%  0.0%  0.0%  B16..8: 29.3%  1.6%  0.1%  direct: 0.1%  skip:68.9%  L0:33.8% L1:61.0% BI: 5.1%
[libx264 @ 0x55dc71039c60] 8x8 transform intra:73.9% inter:59.2%
[libx264 @ 0x55dc71039c60] coded y,uvDC,uvAC intra: 67.7% 64.4% 24.1% inter: 6.5% 2.9% 0.0%
[libx264 @ 0x55dc71039c60] i16 v,h,dc,p: 12% 40% 10% 38%
[libx264 @ 0x55dc71039c60] i8 v,h,dc,ddl,ddr,vr,hd,vl,hu:  7% 23% 19%  5%  6%  5% 11% 11% 14%
[libx264 @ 0x55dc71039c60] i4 v,h,dc,ddl,ddr,vr,hd,vl,hu: 10% 23% 17%  7%  6%  4% 11% 11% 12%
[libx264 @ 0x55dc71039c60] i8c dc,h,v,p: 48% 28% 12% 12%
[libx264 @ 0x55dc71039c60] Weighted P-Frames: Y:0.0% UV:0.0%
[libx264 @ 0x55dc71039c60] ref P L0: 62.4% 19.5% 14.7%  3.4%
[libx264 @ 0x55dc71039c60] ref B L0: 83.3% 14.1%  2.6%
[libx264 @ 0x55dc71039c60] ref B L1: 84.2% 15.8%
[libx264 @ 0x55dc71039c60] PSNR Mean Y:38.283 U:45.871 V:48.338 Avg:39.756 Global:39.719 kb/s:327.53
